<svg width="53" height="53" viewBox="0 0 53 53" fill="none" xmlns="http://www.w3.org/2000/svg">
<path d="M50.0563 23.6212C48.8142 23.6212 47.7517 24.3955 47.3202 25.4859H43.4893C43.2598 21.6013 41.7222 18.0632 39.311 15.3068L42.0294 12.5885C42.395 12.7474 42.7921 12.8329 43.2027 12.8329C43.989 12.8329 44.7282 12.5267 45.2843 11.9706C46.4322 10.8228 46.4322 8.95529 45.2843 7.80744C44.7284 7.25136 43.9892 6.94519 43.2027 6.94519C42.4163 6.94519 41.6771 7.25136 41.1211 7.80744C40.2429 8.68566 40.0392 9.98458 40.505 11.0608L37.7904 13.7754C35.0508 11.3419 31.5234 9.77769 27.6441 9.519V5.6798C28.7344 5.24817 29.5087 4.18565 29.5087 2.94371C29.5087 1.3205 28.1881 0 26.565 0C24.942 0 23.6213 1.32064 23.6213 2.94371C23.6213 4.18579 24.3957 5.24817 25.4859 5.6798V9.51065C21.6013 9.74013 18.0632 11.2777 15.307 13.689L12.5869 10.969C13.0527 9.89279 12.8489 8.59387 11.9706 7.71565C11.4147 7.15957 10.6755 6.8534 9.88905 6.8534C9.10262 6.8534 8.36338 7.15957 7.80744 7.71565C6.65974 8.8635 6.65974 10.731 7.80744 11.8789C8.36338 12.4349 9.10262 12.7411 9.88905 12.7411C10.2998 12.7411 10.6968 12.6556 11.0624 12.4967L13.7753 15.2096C11.3418 17.9491 9.77754 21.4765 9.51885 25.3559H5.6798C5.24817 24.2656 4.18565 23.4912 2.94371 23.4912C1.3205 23.4912 0 24.8119 0 26.435C0 28.0582 1.32064 29.3788 2.94371 29.3788C4.18579 29.3788 5.24832 28.6045 5.6798 27.514H9.51065C9.74013 31.3987 11.2777 34.9367 13.689 37.6931L10.9704 40.4114C10.6048 40.2524 10.2077 40.1669 9.79711 40.1669C9.01083 40.1669 8.27159 40.4731 7.71551 41.0292C6.56781 42.177 6.56781 44.0445 7.71551 45.1924C8.27144 45.7485 9.01068 46.0546 9.79711 46.0546C10.5835 46.0546 11.3228 45.7485 11.8787 45.1924C12.7569 44.3142 12.9607 43.0153 12.4949 41.9391L15.2094 39.2245C17.949 41.6581 21.4764 43.2221 25.3559 43.481V47.3202C24.2654 47.7518 23.4911 48.8143 23.4911 50.0563C23.4911 51.6795 24.8117 53 26.435 53C28.0582 53 29.3787 51.6793 29.3787 50.0563C29.3787 48.8142 28.6043 47.7518 27.514 47.3202V43.4893C31.3985 43.2598 34.9367 41.7222 37.693 39.311L40.413 42.031C39.9472 43.1072 40.151 44.4061 41.0292 45.2843C41.5851 45.8404 42.3244 46.1466 43.1108 46.1466C43.8972 46.1466 44.6365 45.8404 45.1924 45.2843C46.3402 44.1365 46.3402 42.269 45.1924 41.1211C44.6365 40.565 43.8972 40.2589 43.1108 40.2589C42.7488 40.2589 42.3977 40.3266 42.069 40.4509L40.9621 39.3441L40.8702 39.436L39.2245 37.7904C41.6581 35.0508 43.2221 31.5236 43.481 27.6441H47.3202C47.7518 28.7344 48.8143 29.5087 50.0563 29.5087C51.6795 29.5087 53 28.1881 53 26.565C53 24.9417 51.6793 23.6212 50.0563 23.6212ZM42.6472 9.33354C42.7956 9.1852 42.993 9.10334 43.2027 9.10348C43.4125 9.10348 43.6099 9.1852 43.7582 9.33354C44.0645 9.63985 44.0645 10.1382 43.7582 10.4446C43.6099 10.593 43.4125 10.6748 43.2027 10.6748C42.993 10.6748 42.7956 10.593 42.6472 10.4447C42.3409 10.1384 42.3409 9.63985 42.6472 9.33354ZM26.565 2.158C26.9982 2.158 27.3506 2.5105 27.3506 2.94356C27.3506 3.37663 26.9981 3.72913 26.565 3.72913C26.132 3.72913 25.7795 3.37663 25.7795 2.94356C25.7795 2.5105 26.1318 2.158 26.565 2.158ZM9.33368 10.3528C9.02737 10.0464 9.02737 9.54792 9.33368 9.2416C9.48216 9.09327 9.67942 9.0114 9.88919 9.01154C10.099 9.01154 10.2964 9.09327 10.4447 9.2416C10.751 9.54792 10.751 10.0463 10.4447 10.3528C10.2962 10.5011 10.099 10.583 9.88919 10.583C9.67942 10.583 9.48202 10.5011 9.33368 10.3528ZM2.94356 27.2205C2.51035 27.2205 2.158 26.868 2.158 26.4348C2.158 26.0016 2.5105 25.6492 2.94356 25.6492C3.37663 25.6492 3.72913 26.0017 3.72913 26.4348C3.72927 26.8682 3.37678 27.2205 2.94356 27.2205ZM10.3528 43.6663C10.2044 43.8146 10.007 43.8965 9.79725 43.8965C9.58748 43.8965 9.39008 43.8148 9.24175 43.6663C8.93543 43.36 8.93543 42.8615 9.24175 42.5553C9.39008 42.4068 9.58748 42.3251 9.79725 42.3251C10.007 42.3251 10.2044 42.4068 10.3528 42.5551C10.6589 42.8616 10.6589 43.36 10.3528 43.6663ZM26.435 50.8418C26.0017 50.8418 25.6492 50.4893 25.6492 50.0563C25.6492 49.6232 26.0017 49.2707 26.435 49.2707C26.8682 49.2707 27.2205 49.6232 27.2205 50.0563C27.2205 50.4893 26.8682 50.8418 26.435 50.8418ZM43.6663 43.7582C43.5178 43.9066 43.3206 43.9884 43.1108 43.9884C42.901 43.9884 42.7036 43.9067 42.5553 43.7582C42.3639 43.567 42.2921 43.3007 42.3398 43.0531L42.9613 42.4315C43.0101 42.4222 43.06 42.417 43.1108 42.417C43.3206 42.417 43.518 42.4987 43.6663 42.6471C43.9726 42.9535 43.9726 43.4519 43.6663 43.7582ZM37.6966 36.2624L32.4755 31.0412C32.054 30.6196 31.3708 30.6197 30.9495 31.0412C30.5281 31.4626 30.5281 32.1458 30.9495 32.5671L36.164 37.7816C33.8042 39.806 30.8045 41.1039 27.5142 41.3267V33.9364C27.5142 33.3404 27.031 32.8573 26.4351 32.8573C25.8392 32.8573 25.356 33.3404 25.356 33.9364V41.3185C22.0709 41.0673 19.0814 39.7428 16.7376 37.6966L21.9588 32.4755C22.3802 32.054 22.3802 31.3708 21.9588 30.9495C21.5374 30.5281 20.8541 30.5281 20.4329 30.9495L15.2184 36.164C13.194 33.8042 11.8961 30.8043 11.6733 27.5142H19.0635C19.6594 27.5142 20.1425 27.031 20.1425 26.4351C20.1425 25.8392 19.6594 25.356 19.0635 25.356H11.6813C11.9327 22.0709 13.257 19.0814 15.3033 16.7376L20.5245 21.9588C20.7352 22.1695 21.0114 22.2749 21.2875 22.2749C21.5636 22.2749 21.8398 22.1696 22.0505 21.9588C22.4719 21.5374 22.4719 20.8541 22.0505 20.4329L16.836 15.2184C19.1958 13.194 22.1956 11.8961 25.4858 11.6733V19.0635H27.6439V11.6813C30.9291 11.9325 33.9185 13.257 36.2624 15.3033L31.0413 20.5244C30.6199 20.9458 30.6199 21.6291 31.0413 22.0503C31.2519 22.261 31.5282 22.3664 31.8043 22.3664C32.0804 22.3664 32.3566 22.2611 32.5672 22.0503L37.7816 16.836C39.806 19.1958 41.1039 22.1956 41.3267 25.4858H33.9362C33.3403 25.4858 32.8572 25.9689 32.8572 26.5649C32.8572 27.1608 33.3403 27.6439 33.9362 27.6439H41.3184C41.0672 30.9292 39.7428 33.9187 37.6966 36.2624ZM50.0563 27.3506C49.6231 27.3506 49.2707 26.9981 49.2707 26.565C49.2707 26.1318 49.6232 25.7793 50.0563 25.7793C50.4893 25.7793 50.8418 26.1318 50.8418 26.565C50.8418 26.9981 50.4893 27.3506 50.0563 27.3506Z" fill="#2D3A3A"/>
<path d="M34.9459 43.9008C34.7179 43.3502 34.0864 43.0888 33.5361 43.3168C32.9855 43.5449 32.7241 44.1762 32.9521 44.7267L34.3286 48.0498C34.5006 48.4653 34.9025 48.7162 35.3259 48.7162C35.4636 48.7162 35.6035 48.6898 35.7384 48.6338C36.289 48.4057 36.5505 47.7744 36.3224 47.2239L34.9459 43.9008Z" fill="#2D3A3A"/>
<path d="M48.0995 34.2085L44.7764 32.832C44.2255 32.604 43.5946 32.8654 43.3665 33.416C43.1385 33.9666 43.3999 34.5978 43.9505 34.8259L47.2736 36.2023C47.4087 36.2583 47.5486 36.2848 47.6861 36.2848C48.1096 36.2848 48.5114 36.0338 48.6835 35.6183C48.9115 35.0677 48.6501 34.4365 48.0995 34.2085Z" fill="#2D3A3A"/>
<path d="M43.3168 19.4638C43.4889 19.8793 43.8907 20.1302 44.3141 20.1302C44.4518 20.1302 44.5917 20.1037 44.7266 20.0477L48.0497 18.6713C48.6004 18.4432 48.8618 17.8121 48.6337 17.2614C48.4057 16.7108 47.7744 16.4494 47.2239 16.6774L43.9008 18.0539C43.3502 18.282 43.0887 18.9131 43.3168 19.4638Z" fill="#2D3A3A"/>
<path d="M33.4159 9.6334C33.551 9.68937 33.6909 9.71584 33.8284 9.71584C34.2518 9.71584 34.6537 9.46492 34.8258 9.04941L36.2022 5.7263C36.4303 5.17568 36.1688 4.5445 35.6182 4.31646C35.0673 4.08841 34.4363 4.34984 34.2084 4.90045L32.8319 8.22356C32.6039 8.77403 32.8653 9.40536 33.4159 9.6334Z" fill="#2D3A3A"/>
<path d="M18.0538 9.09903C18.2259 9.51454 18.6277 9.76547 19.0511 9.76547C19.1888 9.76547 19.3287 9.73899 19.4636 9.68302C20.0142 9.45498 20.2757 8.82365 20.0476 8.27318L18.6712 4.95007C18.4433 4.39946 17.8118 4.13803 17.2613 4.36608C16.7107 4.59412 16.4493 5.22545 16.6773 5.77592L18.0538 9.09903Z" fill="#2D3A3A"/>
<path d="M4.90024 18.7914L8.22335 20.1679C8.35845 20.2238 8.49829 20.2503 8.63584 20.2503C9.05927 20.2503 9.46111 19.9994 9.63319 19.5839C9.86123 19.0333 9.59981 18.4021 9.0492 18.174L5.72609 16.7976C5.17533 16.5697 4.54429 16.8309 4.31624 17.3816C4.0882 17.9322 4.34962 18.5634 4.90024 18.7914Z" fill="#2D3A3A"/>
<path d="M9.68306 33.5361C9.45501 32.9855 8.82368 32.7242 8.27321 32.9521L4.9501 34.3286C4.39949 34.5566 4.13806 35.188 4.36611 35.7384C4.53818 36.154 4.94003 36.4049 5.36346 36.4049C5.50115 36.4049 5.641 36.3784 5.77595 36.3224L9.09906 34.946C9.64968 34.7179 9.9111 34.0866 9.68306 33.5361Z" fill="#2D3A3A"/>
<path d="M19.5839 43.3666C19.0331 43.1387 18.4021 43.4 18.174 43.9506L16.7976 47.2737C16.5695 47.8243 16.8309 48.4555 17.3816 48.6836C17.5167 48.7395 17.6565 48.766 17.7941 48.766C18.2175 48.766 18.6193 48.5151 18.7914 48.0996L20.1679 44.7765C20.3959 44.2259 20.1345 43.5945 19.5839 43.3666Z" fill="#2D3A3A"/>
</svg>
