<svg width="50" height="35" viewBox="0 0 50 35" fill="none" xmlns="http://www.w3.org/2000/svg">
<mask id="path-1-inside-1_102_76" fill="white">
<path d="M43.459 22.2725C43.9634 22.3235 44.3573 22.7498 44.3574 23.2676C44.3574 23.7855 43.9634 24.2117 43.459 24.2627L43.3574 24.2676H25.75C25.1978 24.2675 24.75 23.8198 24.75 23.2676C24.7502 22.7155 25.1979 22.2677 25.75 22.2676H43.3574L43.459 22.2725ZM43.498 17.416C44.0025 17.467 44.3965 17.8932 44.3965 18.4111C44.3963 18.9289 44.0024 19.3553 43.498 19.4062L43.3965 19.4111H25.7891C25.237 19.411 24.7893 18.9632 24.7891 18.4111C24.7891 17.8589 25.2369 17.4112 25.7891 17.4111H43.3965L43.498 17.416ZM43.498 12.5586C44.0025 12.6096 44.3965 13.0358 44.3965 13.5537C44.3964 14.0716 44.0025 14.4978 43.498 14.5488L43.3965 14.5537H25.7891C25.2369 14.5536 24.7891 14.1059 24.7891 13.5537C24.7891 13.0015 25.2369 12.5538 25.7891 12.5537H43.3965L43.498 12.5586Z"/>
</mask>
<path d="M43.459 22.2725L43.5596 21.2775L43.5334 21.2749L43.507 21.2736L43.459 22.2725ZM44.3574 23.2676L45.3574 23.2676L45.3574 23.2673L44.3574 23.2676ZM43.459 24.2627L43.507 25.2615L43.5334 25.2603L43.5596 25.2576L43.459 24.2627ZM43.3574 24.2676V25.2676H43.3814L43.4054 25.2664L43.3574 24.2676ZM25.75 24.2676L25.7499 25.2676H25.75V24.2676ZM24.75 23.2676L23.75 23.2673V23.2676H24.75ZM25.75 22.2676L25.75 21.2676L25.7499 21.2676L25.75 22.2676ZM43.3574 22.2676L43.4054 21.2687L43.3814 21.2676H43.3574V22.2676ZM43.498 17.416L43.5987 16.4211L43.5724 16.4184L43.5461 16.4172L43.498 17.416ZM44.3965 18.4111L45.3965 18.4115V18.4111H44.3965ZM43.498 19.4062L43.5461 20.4051L43.5724 20.4038L43.5987 20.4012L43.498 19.4062ZM43.3965 19.4111V20.4111H43.4205L43.4445 20.41L43.3965 19.4111ZM25.7891 19.4111L25.7889 20.4111H25.7891V19.4111ZM24.7891 18.4111L23.7891 18.4111L23.7891 18.4115L24.7891 18.4111ZM25.7891 17.4111L25.7891 16.4111L25.7889 16.4111L25.7891 17.4111ZM43.3965 17.4111L43.4445 16.4123L43.4205 16.4111H43.3965V17.4111ZM43.498 12.5586L43.5987 11.5637L43.5724 11.561L43.5461 11.5597L43.498 12.5586ZM44.3965 13.5537L45.3965 13.5538V13.5537H44.3965ZM43.498 14.5488L43.5461 15.5477L43.5724 15.5464L43.5987 15.5438L43.498 14.5488ZM43.3965 14.5537V15.5537H43.4205L43.4445 15.5526L43.3965 14.5537ZM25.7891 14.5537L25.7889 15.5537H25.7891V14.5537ZM24.7891 13.5537L23.7891 13.5537L23.7891 13.5538L24.7891 13.5537ZM25.7891 12.5537L25.7891 11.5537L25.7889 11.5537L25.7891 12.5537ZM43.3965 12.5537L43.4445 11.5549L43.4205 11.5537H43.3965V12.5537ZM43.459 22.2725L43.3584 23.2674C43.3584 23.2674 43.3581 23.2673 43.3575 23.2672C43.3569 23.267 43.3565 23.2668 43.3563 23.2667C43.3561 23.2666 43.3567 23.2669 43.3574 23.2677C43.3581 23.2684 43.358 23.2687 43.3577 23.268C43.3572 23.2667 43.3574 23.2661 43.3574 23.2679L44.3574 23.2676L45.3574 23.2673C45.3571 22.2314 44.5697 21.3797 43.5596 21.2775L43.459 22.2725ZM44.3574 23.2676H43.3574L43.3584 23.2678L43.459 24.2627L43.5596 25.2576C44.5695 25.1555 45.3574 24.3041 45.3574 23.2676H44.3574ZM43.459 24.2627L43.411 23.2638L43.3094 23.2687L43.3574 24.2676L43.4054 25.2664L43.507 25.2615L43.459 24.2627ZM43.3574 24.2676V23.2676H25.75V24.2676V25.2676H43.3574V24.2676ZM25.75 24.2676L25.7501 23.2676L25.75 23.2676H24.75H23.75C23.75 24.3722 24.6456 25.2674 25.7499 25.2676L25.75 24.2676ZM24.75 23.2676L25.75 23.2679L25.7501 23.2676L25.75 22.2676L25.7499 21.2676C24.6454 21.2677 23.7503 22.1633 23.75 23.2673L24.75 23.2676ZM25.75 22.2676V23.2676H43.3574V22.2676V21.2676H25.75V22.2676ZM43.3574 22.2676L43.3094 23.2664L43.411 23.2713L43.459 22.2725L43.507 21.2736L43.4054 21.2687L43.3574 22.2676ZM43.498 17.416L43.3974 18.4109L43.3965 18.4111H44.3965H45.3965C45.3965 17.3746 44.6086 16.5232 43.5987 16.4211L43.498 17.416ZM44.3965 18.4111L43.3965 18.4107C43.3965 18.4125 43.3963 18.4119 43.3968 18.4107C43.3971 18.41 43.3971 18.4103 43.3964 18.411C43.3956 18.4118 43.3951 18.4121 43.3953 18.412C43.3955 18.4119 43.3959 18.4117 43.3965 18.4115C43.3971 18.4114 43.3975 18.4113 43.3974 18.4113L43.498 19.4062L43.5987 20.4012C44.6089 20.299 45.3961 19.4471 45.3965 18.4115L44.3965 18.4111ZM43.498 19.4062L43.45 18.4074L43.3485 18.4123L43.3965 19.4111L43.4445 20.41L43.5461 20.4051L43.498 19.4062ZM43.3965 19.4111V18.4111H25.7891V19.4111V20.4111H43.3965V19.4111ZM25.7891 19.4111L25.7893 18.4111L25.7891 18.4107L24.7891 18.4111L23.7891 18.4115C23.7895 19.5153 24.6845 20.4109 25.7889 20.4111L25.7891 19.4111ZM24.7891 18.4111H25.7891L25.7893 18.4111L25.7891 17.4111L25.7889 16.4111C24.6847 16.4114 23.7891 17.3064 23.7891 18.4111H24.7891ZM25.7891 17.4111V18.4111H43.3965V17.4111V16.4111H25.7891V17.4111ZM43.3965 17.4111L43.3485 18.41L43.45 18.4149L43.498 17.416L43.5461 16.4172L43.4445 16.4123L43.3965 17.4111ZM43.498 12.5586L43.3974 13.5535L43.3965 13.5537H44.3965H45.3965C45.3965 12.5172 44.6086 11.6658 43.5987 11.5637L43.498 12.5586ZM44.3965 13.5537L43.3965 13.5536C43.3965 13.5553 43.3963 13.5547 43.3968 13.5534C43.3971 13.5526 43.3972 13.5529 43.3965 13.5536C43.3958 13.5544 43.3953 13.5546 43.3955 13.5545C43.3957 13.5544 43.3961 13.5543 43.3966 13.5541C43.3972 13.5539 43.3975 13.5539 43.3974 13.5539L43.498 14.5488L43.5987 15.5438C44.6087 15.4416 45.3963 14.59 45.3965 13.5538L44.3965 13.5537ZM43.498 14.5488L43.45 13.55L43.3485 13.5549L43.3965 14.5537L43.4445 15.5526L43.5461 15.5477L43.498 14.5488ZM43.3965 14.5537V13.5537H25.7891V14.5537V15.5537H43.3965V14.5537ZM25.7891 14.5537L25.7893 13.5537L25.7891 13.5536L24.7891 13.5537L23.7891 13.5538C23.7892 14.6582 24.6847 15.5535 25.7889 15.5537L25.7891 14.5537ZM24.7891 13.5537H25.7891L25.7893 13.5537L25.7891 12.5537L25.7889 11.5537C24.6847 11.5539 23.7891 12.449 23.7891 13.5537H24.7891ZM25.7891 12.5537V13.5537H43.3965V12.5537V11.5537H25.7891V12.5537ZM43.3965 12.5537L43.3485 13.5526L43.45 13.5574L43.498 12.5586L43.5461 11.5597L43.4445 11.5549L43.3965 12.5537Z" fill="#2D3A3A" mask="url(#path-1-inside-1_102_76)"/>
<mask id="path-3-inside-2_102_76" fill="white">
<path d="M16.7773 17.5049C18.8908 17.612 20.5713 19.3599 20.5713 21.5V25.75L20.5664 25.8008C20.5463 25.8982 20.4695 25.9751 20.3721 25.9951L20.3213 26H6.25L6.19922 25.9951C6.10185 25.975 6.02495 25.8982 6.00488 25.8008L6 25.75V21.5C6 19.36 7.68056 17.6121 9.79395 17.5049L10 17.5H16.5713L16.7773 17.5049ZM10 19.5C8.89543 19.5 8 20.3954 8 21.5V24H18.5713V21.5C18.5713 20.3954 17.6759 19.5 16.5713 19.5H10Z"/>
</mask>
<path d="M16.7773 17.5049L16.8533 16.0068L16.8331 16.0058L16.8129 16.0053L16.7773 17.5049ZM20.5713 21.5L22.0713 21.5V21.5L20.5713 21.5ZM20.5713 25.75L22.0644 25.8936L22.0713 25.8219V25.75H20.5713ZM20.5664 25.8008L22.0355 26.1037L22.0518 26.0247L22.0595 25.9443L20.5664 25.8008ZM20.3721 25.9951L20.5156 27.4882L20.5955 27.4806L20.674 27.4644L20.3721 25.9951ZM20.3213 26V27.5H20.3932L20.4649 27.4931L20.3213 26ZM6.25 26L6.10643 27.4931L6.17805 27.5H6.25V26ZM6.19922 25.9951L5.89644 27.4642L5.9754 27.4805L6.05565 27.4882L6.19922 25.9951ZM6.00488 25.8008L4.51177 25.9443L4.51949 26.0246L4.53576 26.1036L6.00488 25.8008ZM6 25.75H4.5V25.8219L4.50689 25.8936L6 25.75ZM6 21.5L4.5 21.5V21.5H6ZM9.79395 17.5049L9.75841 16.0053L9.73816 16.0058L9.71793 16.0068L9.79395 17.5049ZM10 17.5V16H9.98223L9.96446 16.0004L10 17.5ZM16.5713 17.5L16.6068 16.0004L16.5891 16H16.5713V17.5ZM10 19.5L10 18L10 18L10 19.5ZM8 21.5L6.5 21.5V21.5H8ZM8 24H6.5V25.5H8V24ZM18.5713 24V25.5H20.0713V24H18.5713ZM18.5713 21.5L20.0713 21.5V21.5L18.5713 21.5ZM16.7773 17.5049L16.7014 19.003C18.0208 19.0699 19.0713 20.1627 19.0713 21.5L20.5713 21.5L22.0713 21.5C22.0713 18.5572 19.7608 16.1542 16.8533 16.0068L16.7773 17.5049ZM20.5713 21.5H19.0713V25.75H20.5713H22.0713V21.5H20.5713ZM20.5713 25.75L19.0782 25.6064L19.0733 25.6572L20.5664 25.8008L22.0595 25.9443L22.0644 25.8936L20.5713 25.75ZM20.5664 25.8008L19.0973 25.4978C19.1981 25.0093 19.5792 24.6267 20.0701 24.5258L20.3721 25.9951L20.674 27.4644C21.3597 27.3235 21.8946 26.787 22.0355 26.1037L20.5664 25.8008ZM20.3721 25.9951L20.2285 24.502L20.1777 24.5069L20.3213 26L20.4649 27.4931L20.5156 27.4882L20.3721 25.9951ZM20.3213 26V24.5H6.25V26V27.5H20.3213V26ZM6.25 26L6.39357 24.5069L6.34279 24.502L6.19922 25.9951L6.05565 27.4882L6.10643 27.4931L6.25 26ZM6.19922 25.9951L6.502 24.526C6.99146 24.6269 7.37313 25.0085 7.47401 25.498L6.00488 25.8008L4.53576 26.1036C4.67677 26.7878 5.21224 27.3232 5.89644 27.4642L6.19922 25.9951ZM6.00488 25.8008L7.498 25.6572L7.49311 25.6064L6 25.75L4.50689 25.8936L4.51177 25.9443L6.00488 25.8008ZM6 25.75H7.5V21.5H6H4.5V25.75H6ZM6 21.5L7.5 21.5C7.5 20.1628 8.55051 19.0699 9.86996 19.003L9.79395 17.5049L9.71793 16.0068C6.81061 16.1543 4.5 18.5572 4.5 21.5L6 21.5ZM9.79395 17.5049L9.82948 19.0045L10.0355 18.9996L10 17.5L9.96446 16.0004L9.75841 16.0053L9.79395 17.5049ZM10 17.5V19H16.5713V17.5V16H10V17.5ZM16.5713 17.5L16.5358 18.9996L16.7418 19.0045L16.7773 17.5049L16.8129 16.0053L16.6068 16.0004L16.5713 17.5ZM10 19.5L10 18C8.067 18 6.5 19.567 6.5 21.5L8 21.5L9.5 21.5C9.5 21.2239 9.72386 21 10 21L10 19.5ZM8 21.5H6.5V24H8H9.5V21.5H8ZM8 24V25.5H18.5713V24V22.5H8V24ZM18.5713 24H20.0713V21.5H18.5713H17.0713V24H18.5713ZM18.5713 21.5L20.0713 21.5C20.0713 19.567 18.5043 18 16.5713 18V19.5V21C16.8474 21 17.0713 21.2239 17.0713 21.5L18.5713 21.5ZM16.5713 19.5V18H10V19.5V21H16.5713V19.5Z" fill="#2D3A3A" mask="url(#path-3-inside-2_102_76)"/>
<rect x="1" y="1" width="48" height="33" rx="7" stroke="#2D3A3A" stroke-width="2"/>
<circle cx="13.5" cy="11.5" r="3.5" stroke="#2D3A3A" stroke-width="2"/>
</svg>
